<svg width="120" height="120" xmlns="http://www.w3.org/2000/svg" xmlns:xlink="http://www.w3.org/1999/xlink" xml:space="preserve" overflow="hidden"><g transform="translate(-31 -542)"><path d="M75.4 618.8C78.2017 620.807 82.0997 620.163 84.1065 617.361 84.4622 616.864 84.743 616.318 84.94 615.74L87.64 607.52C89.025 603.341 92.2906 600.053 96.46 598.64L104.86 595.94C108.127 594.843 109.886 591.306 108.789 588.039 108.125 586.06 106.515 584.544 104.5 584L96.28 581.3C92.101 579.915 88.8134 576.65 87.4 572.48L84.7 564.2C83.9452 562.032 82.0506 560.461 79.78 560.12 76.7619 559.642 73.8413 561.419 72.88 564.32L70.12 572.72C68.7254 576.791 65.541 579.997 61.48 581.42L53.2 584C49.9472 585.138 48.2332 588.698 49.3717 591.951 50.0136 593.785 51.4733 595.215 53.32 595.82L61.54 598.52C65.7377 599.909 69.0308 603.202 70.42 607.4L73.18 615.8C73.6 617 74.38 618.02 75.46 618.8ZM112.24 643.1C114.406 644.629 117.401 644.112 118.929 641.946 119.199 641.563 119.412 641.144 119.56 640.7L121.06 636.14C121.714 634.221 123.221 632.714 125.14 632.06L129.76 630.56C132.267 629.7 133.603 626.97 132.743 624.462 132.248 623.019 131.096 621.897 129.64 621.44L125.02 619.94C123.096 619.294 121.586 617.784 120.94 615.86L119.44 611.24C118.596 608.727 115.874 607.374 113.361 608.218 111.915 608.704 110.787 609.848 110.32 611.3L108.88 615.86C108.231 617.761 106.751 619.263 104.86 619.94L100.24 621.44C97.7218 622.268 96.3508 624.981 97.1788 627.499 97.6552 628.948 98.791 630.084 100.24 630.56L104.86 632.06C106.779 632.714 108.286 634.221 108.94 636.14L110.44 640.76C110.8 641.72 111.4 642.56 112.24 643.16Z" fill="#599FFF"/></g></svg>